<svg width="262" height="265" viewBox="0 0 262 265" fill="none" xmlns="http://www.w3.org/2000/svg">
<path d="M126 130C130.018 130 133.195 127.494 130 123.5C128.622 121.778 120.544 122.753 119.222 124.222C117.705 125.909 114.874 135 118.5 135C121.561 135 123.94 139 127.5 139C132.114 139 135.089 139.704 138.222 136.222C140.207 134.017 142.175 128.981 142 126C141.43 116.307 127.207 113 119.556 113C115.347 113 111.212 112.524 109.222 117C107.651 120.536 104.896 125.72 104.056 129.5C102.97 134.384 102.701 139.922 103 145C103.159 147.704 110.554 152.864 113 153C118.874 153.326 124.863 154 131 154C136.211 154 139.392 149.826 143.5 148C145.083 147.296 148.121 143.768 149.444 142.444C151.772 140.117 154.688 134.371 155.778 131.222C157.14 127.287 155.76 119.434 152 117.222C150.429 116.298 150.072 114.814 148 113.778C145.649 112.602 142.562 112.049 140.5 110.444C136.076 107.004 130.45 106 125 106C111.805 106 95.0105 111.666 90 125.444C86.2901 135.647 79.7741 156.774 89 166C92.4821 169.482 101.298 170.364 105.944 170.944C111.377 171.624 116.378 172 121.944 172C129.31 172 135.858 171.198 143 169C151.896 166.263 155.337 161.946 161.111 154.889C169.933 144.107 171 135.441 171 122C171 110.839 161.778 98.4446 152 93.5556C138.483 86.797 122.143 88.166 107.778 90.7778C100.047 92.1833 94.1238 93.2467 87.5556 97C83.3399 99.4089 78.4025 107.391 76.7778 111.778C74.1144 118.969 67 125.511 67 133.5C67 139.97 64.1547 147.098 67 153.5C69.7365 159.657 71.4262 165.967 74.7778 172C77.0001 176 83.9712 180.462 87.7778 183C91.3172 185.36 93.8137 188.176 98 189.222C104.27 190.79 111.018 192.43 117.444 192.944C125.765 193.61 133.908 193.009 141.944 191C157.716 187.057 175.321 171.528 182 156.5C184.759 150.293 188 144.651 188 137.778C188 128.339 188.382 118.783 184.222 110C179.074 99.1324 169.492 84.5591 158.056 79.5556C154.586 78.0376 150.668 77.3168 146.944 76.9444C139.835 76.2335 133.179 73.509 126.111 72.7778C114.169 71.5424 102.591 69.5582 91 72.7778C52.0224 83.6049 46.8996 129.986 52.0556 163.5C52.452 166.077 53.89 168.588 55.5 170.556C59.7014 175.691 62.8782 181.596 67 186.778C73.0159 194.341 82.2196 199.106 91.2222 202.222C98.0829 204.597 105.316 204 112.5 204C119.56 204 127.626 204.472 134.5 202.944C150.009 199.498 164.855 194.254 178.222 185C181.645 182.63 187.282 177.365 189 173.5C192.254 166.178 200.444 159.807 201.944 151.556C203.31 144.045 204 136.918 204 129.222C204 121.924 206.069 112.24 202 105.778C192.957 91.4153 181.365 75.393 167.056 65.5556C158.259 59.5076 149.383 56.6814 139 54.2222C122.537 50.3232 102.76 46.0436 85.8889 49.1111C78.3113 50.4889 66.82 57.7844 63 65C60.6608 69.4184 57.3237 74.2514 54 77.9444C50.2521 82.1088 49.712 86.3109 47 90.7778C28.7986 120.757 28.5005 162.994 51.2222 191C63.482 206.111 85.2591 217.58 104.444 220.778C119.32 223.257 131.544 224.241 145.5 218.556C154.689 214.812 165.03 209.91 173.444 204.556C189.531 194.319 205.583 180.536 212.778 162.222C217.124 151.158 226 142.205 226 129.556C226 125.328 227 121.266 227 117C227 113.497 225.149 111.715 224 108.556C220.605 99.2204 215.855 89.803 211.222 81C206.846 72.6843 201.045 67.0451 194.444 60.4444C183.44 49.4395 172.178 38.6951 158 32C146.869 26.7438 133.922 25.3976 121.778 25.0556C111.952 24.7788 100.975 23.8507 91.2222 25.2222C83.6026 26.2937 76.3548 27.7561 70.2222 32.5556C64.9925 36.6484 60.3517 41.6349 55 45.5C49.5759 49.4174 46.658 55.387 43 60.7778C40.2863 64.7769 36.0944 67.8455 33.5556 72C31.0704 76.0666 28.6434 79.6022 26.5 83.8889C24.3589 88.171 23.6049 92.2639 22 96.7778C15.1894 115.932 17.0689 139.672 20.2222 159.222C22.1684 171.289 24.1759 186.206 32.0556 196.056C41.6426 208.039 55.8883 215.881 68.2222 224.778C90.9777 241.192 126.914 249.264 153.056 237.5C158.527 235.038 164.059 234.068 169 230.5C173.329 227.373 177.331 223.835 181.222 220.222C185.206 216.523 190.601 214.399 194.5 210.5C199.217 205.783 203.305 200.306 208.556 196.222C219.162 187.972 226.751 174.439 232.5 162.5C235.915 155.408 238.762 148.049 242.222 141C244.288 136.792 247 132.131 247 127.333C247 117.774 249.578 103.899 244 95.2222C239.427 88.1082 235.957 81.1143 230.5 74.4444C218.336 59.5773 209.691 39.7457 192.778 29.2222C184.662 24.1722 176.973 18.3154 169 13C164.451 9.96741 159.422 5.34166 154.056 4C141.531 0.868798 125.765 2.87719 113.444 5.55555C99.4459 8.59871 80.9717 13.4264 70.2222 23.7778C66.4744 27.3868 61.675 29.9237 57.5 33C55.1708 34.7163 50.8653 38.6629 48 39C43.5713 39.521 38.854 43.6064 35.5 46.4444C30.3628 50.7913 24.9761 55.9232 21.7778 62C13.7204 77.309 3 92.7061 3 110.944C3 119.323 2 127.392 2 135.778C2 149.88 3.90722 163.372 7.22222 177C10.029 188.539 15.7027 199.638 21.5 209.944C24.408 215.114 28.7209 222.499 34.0556 225.5C38.3272 227.903 42.3978 230.606 46.6111 233.111C54.7581 237.955 61.9082 246.293 70.7778 249.778C79.202 253.087 88.058 256.374 97 258C114.026 261.096 129.279 265.295 146.444 260.778C163.783 256.215 181.874 245.372 196.056 234.5C202.495 229.563 212.21 226.696 217 219.778C223.122 210.935 231.838 203.859 238 194.778C242.174 188.627 243.835 180.46 247.5 173.944C253.297 163.639 255 152.874 255 141.167C255 132.145 257.396 124.252 258.778 115.444C259.616 110.098 260.679 99.7527 258.778 95C255.366 86.47 255.959 77.3846 250.5 69.5C247.625 65.3473 245.322 60.7826 242.556 56.5556C239.918 52.5254 236.227 44.4935 231 43C223.345 40.813 222.318 29.7274 217 25C212.381 20.8939 209.735 14.9802 206 10" stroke="#6cbbbf" stroke-width="2" stroke-linecap="round"/>
</svg>
